<svg xmlns="http://www.w3.org/2000/svg" id="Layer1" width="612" height="236" viewBox="0 0 612 236"><style/><path d="M0 0 L0 236 L0.00 225.99 L1.00 225.68 L2.00 226.74 L3.00 226.45 L4.00 225.36 L5.00 226.16 L6.00 226.57 L7.00 226.58 L8.00 227.19 L9.00 227.68 L10.00 228.79 L11.00 228.37 L12.00 227.10 L13.00 226.81 L14.00 227.38 L15.00 227.32 L16.00 228.77 L17.00 229.78 L18.00 228.74 L19.00 229.50 L20.00 230.52 L21.00 229.31 L22.00 227.94 L23.00 226.83 L24.00 226.95 L25.00 226.19 L26.00 225.19 L27.00 226.56 L28.00 227.48 L29.00 227.71 L30.00 229.04 L31.00 228.79 L32.00 228.65 L33.00 228.61 L34.00 227.42 L35.00 226.83 L36.00 225.34 L37.00 224.23 L38.00 224.40 L39.00 224.21 L40.00 224.18 L41.00 223.29 L42.00 224.43 L43.00 223.01 L44.00 223.99 L45.00 224.63 L46.00 223.56 L47.00 224.51 L48.00 224.75 L49.00 225.93 L50.00 225.41 L51.00 224.75 L52.00 224.15 L53.00 223.74 L54.00 222.37 L55.00 221.79 L56.00 222.23 L57.00 222.23 L58.00 221.69 L59.00 221.11 L60.00 221.33 L61.00 220.55 L62.00 219.57 L63.00 218.54 L64.00 219.11 L65.00 220.56 L66.00 221.13 L67.00 220.77 L68.00 220.35 L69.00 221.20 L70.00 222.66 L71.00 221.99 L72.00 222.57 L73.00 223.81 L74.00 223.46 L75.00 224.41 L76.00 224.48 L77.00 224.08 L78.00 223.87 L79.00 224.46 L80.00 223.39 L81.00 224.46 L82.00 225.45 L83.00 225.11 L84.00 225.62 L85.00 225.17 L86.00 223.92 L87.00 224.32 L88.00 222.89 L89.00 223.53 L90.00 222.42 L91.00 221.65 L92.00 221.11 L93.00 221.46 L94.00 222.32 L95.00 222.69 L96.00 224.09 L97.00 225.54 L98.00 226.98 L99.00 225.76 L100.00 225.06 L101.00 223.71 L102.00 224.38 L103.00 223.69 L104.00 222.27 L105.00 220.98 L106.00 220.72 L107.00 222.12 L108.00 223.29 L109.00 222.45 L110.00 222.07 L111.00 220.79 L112.00 221.22 L113.00 220.93 L114.00 221.41 L115.00 220.93 L116.00 221.21 L117.00 220.79 L118.00 221.41 L119.00 221.80 L120.00 222.91 L121.00 224.04 L122.00 224.10 L123.00 224.93 L124.00 225.01 L125.00 226.12 L126.00 225.80 L127.00 226.57 L128.00 227.10 L129.00 227.47 L130.00 227.67 L131.00 228.17 L132.00 226.69 L133.00 226.79 L134.00 226.85 L135.00 227.44 L136.00 228.33 L137.00 227.89 L138.00 228.35 L139.00 227.62 L140.00 226.15 L141.00 225.52 L142.00 225.82 L143.00 225.50 L144.00 225.32 L145.00 224.27 L146.00 224.39 L147.00 223.60 L148.00 224.00 L149.00 223.79 L150.00 224.74 L151.00 225.31 L152.00 224.49 L153.00 225.20 L154.00 225.83 L155.00 224.68 L156.00 223.20 L157.00 222.02 L158.00 222.27 L159.00 221.57 L160.00 220.86 L161.00 220.97 L162.00 220.27 L163.00 218.94 L164.00 217.69 L165.00 217.72 L166.00 217.95 L167.00 217.73 L168.00 218.97 L169.00 220.26 L170.00 219.06 L171.00 218.76 L172.00 219.48 L173.00 219.71 L174.00 220.71 L175.00 219.30 L176.00 220.33 L177.00 221.38 L178.00 221.51 L179.00 221.51 L180.00 220.79 L181.00 222.24 L182.00 221.33 L183.00 220.98 L184.00 219.70 L185.00 219.63 L186.00 220.03 L187.00 220.92 L188.00 222.05 L189.00 221.79 L190.00 222.94 L191.00 224.09 L192.00 224.33 L193.00 223.13 L194.00 222.72 L195.00 224.09 L196.00 222.97 L197.00 223.01 L198.00 222.78 L199.00 221.56 L200.00 221.29 L201.00 220.99 L202.00 222.33 L203.00 223.39 L204.00 224.47 L205.00 224.50 L206.00 225.56 L207.00 224.73 L208.00 225.44 L209.00 226.21 L210.00 224.86 L211.00 226.33 L212.00 224.95 L213.00 225.63 L214.00 225.22 L215.00 225.05 L216.00 224.44 L217.00 225.05 L218.00 226.13 L219.00 227.08 L220.00 226.67 L221.00 227.61 L222.00 226.31 L223.00 225.70 L224.00 226.52 L225.00 226.66 L226.00 226.59 L227.00 227.28 L228.00 227.80 L229.00 226.53 L230.00 226.01 L231.00 226.36 L232.00 227.16 L233.00 227.97 L234.00 227.34 L235.00 226.07 L236.00 227.20 L237.00 226.86 L238.00 226.85 L239.00 225.75 L240.00 224.89 L241.00 224.97 L242.00 223.62 L243.00 224.73 L244.00 224.59 L245.00 225.23 L246.00 224.52 L247.00 224.13 L248.00 225.28 L249.00 225.78 L250.00 226.38 L251.00 227.39 L252.00 227.15 L253.00 227.47 L254.00 228.86 L255.00 229.19 L256.00 229.42 L257.00 229.05 L258.00 228.22 L259.00 229.69 L260.00 231.10 L261.00 231.30 L262.00 230.00 L263.00 230.75 L264.00 230.56 L265.00 230.47 L266.00 231.30 L267.00 230.16 L268.00 231.39 L269.00 230.70 L270.00 231.71 L271.00 231.20 L272.00 232.36 L273.00 233.31 L274.00 232.81 L275.00 231.62 L276.00 230.17 L277.00 230.40 L278.00 231.12 L279.00 232.37 L280.00 232.64 L281.00 233.27 L282.00 234.68 L283.00 234.39 L284.00 234.80 L285.00 234.62 L286.00 235.42 L287.00 235.43 L288.00 235.63 L289.00 235.04 L290.00 234.01 L291.00 233.90 L292.00 234.11 L293.00 233.20 L294.00 234.05 L295.00 234.77 L296.00 235.11 L297.00 235.26 L298.00 235.10 L299.00 235.48 L300.00 234.93 L301.00 235.07 L302.00 234.20 L303.00 235.42 L304.00 234.92 L305.00 234.36 L306.00 233.92 L307.00 233.01 L308.00 232.88 L309.00 233.77 L310.00 234.29 L311.00 234.46 L312.00 235.89 L313.00 234.88 L314.00 233.58 L315.00 233.35 L316.00 234.15 L317.00 233.59 L318.00 233.35 L319.00 233.45 L320.00 234.13 L321.00 233.69 L322.00 232.20 L323.00 233.17 L324.00 234.09 L325.00 235.36 L326.00 236.00 L327.00 235.37 L328.00 233.99 L329.00 234.86 L330.00 235.76 L331.00 234.84 L332.00 233.70 L333.00 233.49 L334.00 232.42 L335.00 232.11 L336.00 232.43 L337.00 233.81 L338.00 234.81 L339.00 235.09 L340.00 234.59 L341.00 234.70 L342.00 233.88 L343.00 235.20 L344.00 234.75 L345.00 235.01 L346.00 235.50 L347.00 234.36 L348.00 234.33 L349.00 233.28 L350.00 233.89 L351.00 234.69 L352.00 233.22 L353.00 234.02 L354.00 233.93 L355.00 235.01 L356.00 234.71 L357.00 235.53 L358.00 234.36 L359.00 235.68 L360.00 235.36 L361.00 234.60 L362.00 233.88 L363.00 234.77 L364.00 235.78 L365.00 234.37 L366.00 234.07 L367.00 234.59 L368.00 235.32 L369.00 234.14 L370.00 234.03 L371.00 234.05 L372.00 233.16 L373.00 232.16 L374.00 232.05 L375.00 230.73 L376.00 230.61 L377.00 229.59 L378.00 228.15 L379.00 227.96 L380.00 228.93 L381.00 227.83 L382.00 226.98 L383.00 226.55 L384.00 227.86 L385.00 227.50 L386.00 226.30 L387.00 225.53 L388.00 225.48 L389.00 224.42 L390.00 225.09 L391.00 225.41 L392.00 224.16 L393.00 225.32 L394.00 225.11 L395.00 226.30 L396.00 226.19 L397.00 225.37 L398.00 224.75 L399.00 223.98 L400.00 224.80 L401.00 223.38 L402.00 221.92 L403.00 222.27 L404.00 222.23 L405.00 220.82 L406.00 221.28 L407.00 222.71 L408.00 223.00 L409.00 222.34 L410.00 222.20 L411.00 223.04 L412.00 222.98 L413.00 223.03 L414.00 222.36 L415.00 222.25 L416.00 223.13 L417.00 223.09 L418.00 222.13 L419.00 223.52 L420.00 222.10 L421.00 222.86 L422.00 222.05 L423.00 222.05 L424.00 220.63 L425.00 222.05 L426.00 220.73 L427.00 220.75 L428.00 220.68 L429.00 219.30 L430.00 219.36 L431.00 219.28 L432.00 217.98 L433.00 218.75 L434.00 220.17 L435.00 220.07 L436.00 220.80 L437.00 220.72 L438.00 221.30 L439.00 222.74 L440.00 223.62 L441.00 223.40 L442.00 222.54 L443.00 222.47 L444.00 223.73 L445.00 222.92 L446.00 224.20 L447.00 224.07 L448.00 225.25 L449.00 224.81 L450.00 223.77 L451.00 224.64 L452.00 224.48 L453.00 225.26 L454.00 224.09 L455.00 222.76 L456.00 221.82 L457.00 221.83 L458.00 222.91 L459.00 222.86 L460.00 223.11 L461.00 223.38 L462.00 223.57 L463.00 223.83 L464.00 222.61 L465.00 222.82 L466.00 222.31 L467.00 223.60 L468.00 222.33 L469.00 222.38 L470.00 221.86 L471.00 222.14 L472.00 221.23 L473.00 222.52 L474.00 222.48 L475.00 223.92 L476.00 224.46 L477.00 225.39 L478.00 224.79 L479.00 224.62 L480.00 224.73 L481.00 224.15 L482.00 224.18 L483.00 223.27 L484.00 224.60 L485.00 224.22 L486.00 225.33 L487.00 226.38 L488.00 225.22 L489.00 225.78 L490.00 226.99 L491.00 228.37 L492.00 228.31 L493.00 227.29 L494.00 228.47 L495.00 228.33 L496.00 226.98 L497.00 225.97 L498.00 227.20 L499.00 227.63 L500.00 226.52 L501.00 227.10 L502.00 228.39 L503.00 227.51 L504.00 227.68 L505.00 226.25 L506.00 226.68 L507.00 225.77 L508.00 225.45 L509.00 224.44 L510.00 225.49 L511.00 224.52 L512.00 223.29 L513.00 222.41 L514.00 223.13 L515.00 223.69 L516.00 223.57 L517.00 222.50 L518.00 222.34 L519.00 223.23 L520.00 222.34 L521.00 221.17 L522.00 220.98 L523.00 220.92 L524.00 219.58 L525.00 219.17 L526.00 218.99 L527.00 219.34 L528.00 218.72 L529.00 217.69 L530.00 218.87 L531.00 217.38 L532.00 216.03 L533.00 214.72 L534.00 214.25 L535.00 215.08 L536.00 215.91 L537.00 215.29 L538.00 214.83 L539.00 213.62 L540.00 214.36 L541.00 213.82 L542.00 214.61 L543.00 213.96 L544.00 214.01 L545.00 213.31 L546.00 212.73 L547.00 212.25 L548.00 211.94 L549.00 211.22 L550.00 210.02 L551.00 209.80 L552.00 211.13 L553.00 211.13 L554.00 210.23 L555.00 209.55 L556.00 208.78 L557.00 209.89 L558.00 208.53 L559.00 208.91 L560.00 210.20 L561.00 209.65 L562.00 208.18 L563.00 208.25 L564.00 209.30 L565.00 207.98 L566.00 207.50 L567.00 207.78 L568.00 207.54 L569.00 207.85 L570.00 209.22 L571.00 209.93 L572.00 208.69 L573.00 209.35 L574.00 210.62 L575.00 210.78 L576.00 211.72 L577.00 212.22 L578.00 213.15 L579.00 214.15 L580.00 212.83 L581.00 212.35 L582.00 212.93 L583.00 214.22 L584.00 214.95 L585.00 213.70 L586.00 212.32 L587.00 213.38 L588.00 212.76 L589.00 212.77 L590.00 212.74 L591.00 214.03 L592.00 215.45 L593.00 216.72 L594.00 216.71 L595.00 215.81 L596.00 216.89 L597.00 216.39 L598.00 217.56 L599.00 218.65 L600.00 219.21 L601.00 219.69 L602.00 219.19 L603.00 217.87 L604.00 217.78 L605.00 218.40 L606.00 218.55 L607.00 219.41 L608.00 218.63 L609.00 218.07 L610.00 219.30 L611.00 218.02 L612.00 217.20 L612 0 Z"/></svg>