<svg xmlns="http://www.w3.org/2000/svg" xmlns:xlink="http://www.w3.org/1999/xlink" width="110" height="110" x="0" y="0" enable-background="new 8 12 110 110" overflow="visible" version="1.1" viewBox="8 12 110 110" xml:space="preserve"><rect width="300" height="140" x=".5" y=".5" fill="#004B95" stroke="#000" stroke-miterlimit="10" display="none"/><path fill="none" fill-rule="evenodd" d="M9.138,23.852h43.307v43.307H9.138V23.852z" clip-rule="evenodd"/><path fill="#FFF" fill-rule="evenodd" d="M44.871,26.241h3.296v34.747h-3.296V26.241z M38.555,26.241h3.425	v34.747h-3.425V26.241z M32.239,26.241h3.422v34.747h-3.422V26.241z M25.923,26.241h3.42v34.747h-3.42V26.241z M19.607,26.241h3.422	v34.747h-3.422V26.241z M13.417,26.241h3.294v34.747h-3.294V26.241z M9.945,22.772h41.692v41.691H9.945V22.772z" clip-rule="evenodd"/><path fill="none" fill-rule="evenodd" d="M8.856,67.693h43.306V111H8.856V67.693z" clip-rule="evenodd"/><path fill="#FFF" fill-rule="evenodd" d="M44.589,71.97h3.296v34.747h-3.296V71.97z M38.273,71.97h3.425	v34.747h-3.425V71.97z M31.957,71.97h3.422v34.747h-3.422V71.97z M25.641,71.97h3.42v34.747h-3.42V71.97z M19.326,71.97h3.421	v34.747h-3.421V71.97z M13.135,71.97h3.294v34.747h-3.294V71.97z M9.664,68.5h41.691v41.692H9.664V68.5z" clip-rule="evenodd"/><path fill="none" fill-rule="evenodd" d="M52.529,67.777h43.307v43.306H52.529V67.777z" clip-rule="evenodd"/><path fill="#FFF" fill-rule="evenodd" d="M90.15,72.054h3.296v34.747H90.15V72.054z M83.834,72.054h3.425	v34.747h-3.425V72.054z M77.519,72.054h3.421v34.747h-3.421V72.054z M71.202,72.054h3.42v34.747h-3.42V72.054z M64.886,72.054h3.422	v34.747h-3.422V72.054z M58.696,72.054h3.294v34.747h-3.294V72.054z M55.225,68.584h41.691v41.691H55.225V68.584z" clip-rule="evenodd"/><rect id="_x3C_Slice_x3E__3_" width="110" height="110" x="8" y="12" fill="none" fill-rule="evenodd" clip-rule="evenodd"/></svg>